<?xml version="1.0" standalone="no"?>
<!DOCTYPE svg PUBLIC "-//W3C//DTD SVG 20010904//EN"
 "http://www.w3.org/TR/2001/REC-SVG-20010904/DTD/svg10.dtd">
<svg version="1.0" xmlns="http://www.w3.org/2000/svg"
 width="340.000000pt" height="270.000000pt" viewBox="0 0 340.000000 270.000000"
 preserveAspectRatio="xMidYMid meet">

<g transform="translate(0.000000,270.000000) scale(0.100000,-0.100000)"
fill="#000000" stroke="none">
<path d="M1380 2697 c0 -25 39 -107 59 -124 33 -29 35 -28 50 4 11 25 10 29
-10 46 -14 11 -25 14 -29 7 -3 -6 -16 3 -29 21 -13 18 -17 28 -10 24 12 -8 12
-6 0 8 -12 15 -31 23 -31 14z"/>
<path d="M1580 2674 c0 -16 -4 -23 -11 -18 -8 5 -10 -2 -7 -21 7 -34 -8 -81
-34 -107 -21 -21 -23 -39 -6 -56 34 -34 68 21 68 107 0 50 0 51 25 39 40 -18
51 2 23 45 -28 43 -58 49 -58 11z"/>
<path d="M1730 2670 c0 -33 33 -103 44 -93 12 12 6 79 -10 101 -21 30 -34 28
-34 -8z"/>
<path d="M1844 2683 c19 -69 18 -82 -10 -108 -30 -28 -30 -30 8 -39 34 -8 54
11 69 66 15 59 16 90 2 95 -7 3 -13 -2 -13 -11 0 -20 -16 -21 -24 -1 -8 22
-39 19 -32 -2z"/>
<path d="M2007 2673 c-6 -33 9 -63 62 -123 47 -53 54 -50 91 43 13 31 28 57
32 57 5 0 6 -5 3 -10 -12 -20 6 -69 32 -85 18 -12 23 -13 19 -4 -4 8 4 1 17
-15 31 -36 50 -30 54 18 3 47 8 53 27 33 8 -8 13 -17 10 -20 -11 -10 15 -43
34 -44 29 -2 43 42 26 87 l-12 35 -2 -35 -2 -35 -12 34 c-12 33 -12 33 -23 10
-12 -27 -17 -20 -29 46 l-7 40 -9 -43 c-5 -24 -15 -45 -23 -48 -9 -4 -12 -19
-9 -47 4 -39 3 -40 -6 -12 -5 17 -11 47 -12 68 -1 36 -12 49 -20 25 -2 -6 -12
4 -21 23 -12 26 -17 29 -17 14 l-1 -20 -9 20 -8 20 -7 -20 c-23 -70 -56 -125
-75 -125 -24 0 -24 3 -4 42 9 16 11 27 6 24 -6 -4 -18 4 -27 16 l-17 23 5 -23
c8 -32 -12 -16 -29 24 -17 41 -30 43 -37 7z"/>
<path d="M2743 2583 c-43 -65 -81 -123 -85 -130 -5 -7 -2 -9 11 -6 10 3 30 0
42 -7 22 -10 22 -10 6 3 -17 14 -17 18 17 87 20 39 50 92 66 117 17 25 29 47
26 50 -2 3 -40 -49 -83 -114z"/>
<path d="M2851 2599 c-35 -55 -78 -111 -95 -124 -17 -14 -25 -25 -17 -25 7 0
11 -6 8 -14 -4 -10 -1 -13 9 -9 7 3 14 0 14 -6 0 -6 -5 -11 -11 -11 -5 0 -7
-5 -4 -11 4 -6 13 -8 21 -5 7 3 16 0 20 -6 4 -7 3 -8 -5 -4 -15 10 -3 -46 13
-56 15 -10 24 -1 51 51 13 26 60 107 104 179 45 73 81 134 81 137 0 3 -28 5
-62 5 l-63 0 -64 -101z"/>
<path d="M1950 2660 c0 -9 20 -35 45 -58 25 -23 45 -39 45 -35 -1 16 -89 108
-90 93z"/>
<path d="M1166 2610 c25 -48 113 -118 128 -103 10 11 7 53 -5 53 -5 0 -8 -4
-5 -9 3 -5 -2 -12 -11 -15 -16 -6 -38 9 -91 64 -13 14 -20 18 -16 10z"/>
<path d="M2467 2587 c-4 -10 -11 -15 -17 -12 -5 3 -10 2 -10 -4 0 -19 23 -60
36 -65 15 -6 17 16 5 69 -5 25 -8 27 -14 12z"/>
<path d="M2505 2571 c-3 -5 -1 -12 5 -16 5 -3 10 1 10 9 0 18 -6 21 -15 7z"/>
<path d="M2531 2541 c-14 -33 -14 -34 22 -67 39 -36 63 -44 53 -18 -3 9 -6 27
-6 42 0 25 -1 25 -15 6 -14 -18 -14 -18 -15 11 0 22 -3 26 -9 16 -7 -11 -10
-7 -13 15 l-3 29 -14 -34z"/>
<path d="M1173 2546 c4 -10 10 -28 13 -40 8 -32 129 -106 175 -106 18 0 35 17
26 26 -2 3 -17 7 -33 10 -40 7 -107 48 -151 92 -20 20 -34 28 -30 18z"/>
<path d="M1410 2522 c0 -4 16 -12 35 -18 43 -13 45 -10 5 11 -33 17 -40 18
-40 7z"/>
<path d="M932 2511 c-8 -4 17 -22 67 -49 88 -47 91 -48 91 -27 0 8 -9 15 -20
15 -24 0 -70 21 -70 32 0 4 -5 8 -12 8 -6 0 -19 7 -27 14 -9 8 -22 12 -29 7z"/>
<path d="M1150 2491 c0 -12 5 -21 10 -21 6 0 10 6 10 14 0 8 -4 18 -10 21 -5
3 -10 -3 -10 -14z"/>
<path d="M1371 2471 c-10 -6 -10 -10 -1 -16 13 -8 24 -1 19 14 -3 6 -10 7 -18
2z"/>
<path d="M950 2416 c17 -32 35 -76 38 -99 7 -37 11 -41 52 -53 25 -8 48 -14
53 -14 13 0 7 26 -18 76 -14 27 -25 50 -25 52 0 2 19 -8 43 -22 23 -13 52 -27
65 -31 20 -6 22 -3 22 34 0 44 -5 48 -34 26 -11 -8 -28 -15 -38 -15 -27 0 -89
34 -122 66 -32 31 -28 22 16 -44 32 -46 62 -112 55 -119 -3 -2 -25 31 -50 74
-57 99 -104 156 -57 69z"/>
<path d="M940 2343 c0 -7 -7 -10 -17 -7 -11 3 -5 -5 12 -20 35 -30 40 -28 20
10 -8 16 -15 24 -15 17z"/>
<path d="M2068 2333 c7 -3 16 -2 19 1 4 3 -2 6 -13 5 -11 0 -14 -3 -6 -6z"/>
<path d="M2110 2323 c8 -3 36 -14 62 -23 27 -10 46 -14 43 -10 -6 9 -93 40
-109 39 -6 0 -4 -3 4 -6z"/>
<path d="M2910 2311 c-13 -26 -13 -31 4 -31 9 0 13 10 12 25 -1 30 -2 30 -16
6z"/>
<path d="M2955 2293 c-9 -20 -14 -42 -11 -49 9 -23 -34 -90 -71 -111 l-36 -21
48 -21 c64 -28 143 -51 177 -51 15 0 28 -4 28 -9 0 -10 -112 -4 -183 10 -27 5
-53 7 -58 3 -5 -3 -9 0 -9 5 0 6 -6 11 -14 11 -8 0 -21 8 -28 18 -13 17 -14
17 -30 0 -10 -10 -14 -18 -10 -18 8 0 82 -48 161 -103 l26 -18 -60 5 c-67 7
-125 8 -170 4 -26 -3 -30 1 -40 35 l-11 38 -28 -30 c-16 -17 -32 -30 -35 -29
-25 3 -33 -3 -22 -15 8 -11 7 -18 -7 -29 -29 -26 -100 -58 -115 -52 -21 8 -51
-86 -44 -137 l5 -38 -46 6 c-26 3 -59 12 -73 19 -23 12 -29 11 -44 -5 -16 -18
-15 -20 7 -26 35 -11 70 -42 95 -83 13 -20 23 -40 23 -44 0 -7 -81 -28 -124
-31 -24 -2 -36 6 -62 40 -18 23 -34 48 -37 55 -3 9 -8 10 -16 2 -9 -8 -9 -28
1 -82 14 -84 10 -91 -52 -96 -62 -5 -70 0 -70 46 0 35 -2 39 -16 28 -8 -8 -32
-43 -54 -79 -51 -88 -141 -176 -170 -168 -20 5 -20 4 -7 -11 9 -9 14 -28 12
-42 -2 -14 -9 -61 -15 -105 -15 -99 -23 -117 -40 -85 -12 22 -11 41 9 115 13
51 14 145 1 145 -5 0 -18 -17 -29 -37 -33 -63 -87 -134 -115 -148 -29 -15 -31
-14 -41 35 l-8 35 -79 -85 c-44 -47 -100 -116 -126 -154 -26 -38 -50 -74 -53
-79 -4 -5 -6 16 -5 47 0 61 -3 69 -27 60 -20 -7 -123 -134 -146 -178 l-16 -31
-3 48 c-2 26 -6 47 -9 47 -3 0 -46 -30 -96 -68 -50 -37 -94 -66 -99 -64 -4 1
-8 -5 -8 -13 0 -18 55 -97 62 -89 3 3 8 -4 11 -15 3 -14 -18 -40 -89 -105 -96
-87 -132 -109 -94 -58 16 22 24 55 32 135 6 58 8 114 4 124 -7 16 -11 14 -37
-15 -18 -20 -28 -40 -25 -49 6 -14 -102 -138 -111 -129 -3 2 5 32 18 65 12 34
19 64 15 68 -13 13 -83 -75 -95 -120 -6 -25 -15 -49 -21 -52 -7 -4 -7 3 0 20
12 31 13 95 3 95 -5 0 -25 -16 -46 -35 -43 -40 -52 -43 -37 -15 10 18 9 19
-17 9 -20 -7 -29 -7 -31 1 -3 7 -9 7 -20 -2 -12 -11 -12 -7 3 21 l18 35 -26
-17 c-24 -15 -25 -15 -20 3 6 23 4 24 -32 10 l-25 -10 16 31 c25 49 14 59 -68
60 -40 0 -66 3 -58 6 8 3 26 14 39 24 27 21 46 25 35 7 -4 -7 -3 -8 5 -4 6 4
9 11 6 16 -7 11 42 50 58 46 7 -1 8 -1 4 2 -4 2 -3 10 4 18 9 11 4 23 -25 58
-37 46 -95 80 -156 91 l-35 6 25 -21 c21 -17 21 -19 5 -14 -16 6 -14 1 9 -24
22 -24 39 -32 65 -32 l36 -1 -29 -16 c-19 -10 -43 -14 -70 -10 -23 3 -50 2
-61 -2 -15 -6 -9 -9 25 -15 l45 -7 -24 -20 c-37 -30 -16 -35 42 -10 28 13 63
26 77 29 22 5 23 3 12 -11 -7 -9 -27 -19 -43 -22 -16 -4 -32 -11 -35 -16 -3
-6 -17 -14 -30 -19 -28 -11 -32 -30 -6 -31 11 -1 9 -4 -8 -9 -14 -4 -19 -8
-12 -9 7 -1 24 -9 36 -18 l24 -18 -27 -17 -26 -18 28 0 c34 0 35 -13 2 -38
l-24 -19 40 -19 c35 -15 39 -20 25 -30 -21 -15 -20 -25 2 -18 9 3 6 -2 -8 -11
l-25 -16 28 6 c29 6 35 -3 15 -23 -24 -24 7 -11 36 15 27 24 26 22 -4 -11 -31
-34 -33 -38 -12 -31 21 6 23 5 13 -13 -6 -12 -11 -23 -11 -26 0 -10 35 7 47
23 7 9 12 12 12 6 0 -5 -6 -19 -14 -29 -18 -24 -20 -45 -3 -28 17 17 33 15 18
-3 -16 -19 11 -48 36 -38 14 5 16 3 11 -12 -7 -16 -5 -16 10 -4 15 12 16 12
11 -6 -3 -11 -9 -29 -13 -40 -7 -18 -6 -18 15 3 23 24 42 23 22 -1 -19 -23 7
-68 35 -61 21 6 22 4 13 -25 -8 -29 -8 -30 21 -24 26 5 29 3 29 -21 0 -23 3
-25 19 -17 15 8 20 7 25 -5 3 -9 4 -20 0 -25 -3 -5 -1 -9 5 -9 5 0 13 4 16 10
11 18 27 10 22 -10 -4 -17 -2 -20 14 -15 15 5 19 1 19 -15 0 -17 3 -19 19 -10
26 13 31 13 31 -4 0 -11 38 -14 218 -15 l217 -1 19 40 c12 24 23 37 29 31 5
-5 2 -21 -7 -40 l-17 -31 91 0 c79 0 90 2 91 18 0 9 7 35 15 57 l13 40 -5 -40
c-3 -22 -7 -48 -10 -58 -5 -16 22 -17 508 -17 282 0 518 4 523 8 6 4 10 18 10
32 0 26 4 27 56 15 24 -6 25 -5 21 29 -5 46 7 46 60 -1 l41 -38 -6 37 c-4 21
-10 54 -14 74 l-6 37 58 -8 c32 -4 64 -9 71 -12 8 -3 3 13 -12 40 -30 55 -46
105 -34 112 4 2 41 1 81 -4 41 -6 76 -8 78 -5 2 2 -2 12 -11 21 -13 17 -79
128 -107 180 -22 43 7 23 33 -22 26 -44 28 -45 74 -44 26 0 41 3 35 6 -7 2
-13 11 -13 19 0 9 -4 13 -9 10 -5 -4 -7 4 -4 15 6 20 11 21 71 16 l64 -6 -25
23 c-14 13 -32 36 -40 52 l-15 29 92 2 c50 1 102 5 115 8 24 6 24 6 -8 26 -58
35 -126 125 -115 153 7 18 34 14 102 -15 23 -10 42 -16 42 -13 0 2 -13 28 -29
57 -16 28 -32 63 -36 76 -7 22 -5 24 24 18 17 -4 50 -16 73 -27 23 -11 43 -18
45 -16 2 2 -17 34 -42 71 -25 37 -45 69 -45 70 0 1 17 -6 38 -16 20 -10 50
-21 66 -25 l30 -7 -36 44 c-19 24 -43 59 -53 78 -16 33 -16 35 0 47 10 7 48
20 85 28 37 9 78 20 91 24 21 8 20 10 -16 16 -67 13 -131 44 -132 66 -1 11 1
21 5 21 4 1 57 4 117 8 l110 6 -60 33 c-33 18 -78 49 -100 68 l-40 35 25 20
c25 19 137 59 169 60 9 0 -9 10 -40 22 -78 31 -129 65 -129 87 0 23 44 60 104
90 25 12 46 23 46 23 0 1 -13 2 -30 3 -47 2 -150 26 -150 36 0 4 21 23 46 41
l46 32 -41 8 c-23 5 -41 12 -41 18 0 5 3 9 8 9 4 0 18 10 32 21 24 20 24 20 3
14 -25 -7 -30 4 -11 23 9 9 4 12 -22 12 l-35 1 36 33 36 33 -49 -2 c-26 -1
-48 1 -48 6 0 5 14 24 31 44 18 20 30 38 27 40 -2 3 -20 0 -39 -5 -50 -15 -55
-13 -32 13 29 31 35 45 20 44 -6 0 -30 1 -52 2 -32 1 -37 4 -22 12 25 15 22
32 -4 18 -20 -10 -21 -9 -15 23 3 18 3 27 0 20 -3 -6 -11 -9 -16 -6 -6 4 -8 2
-4 -4 3 -6 2 -13 -3 -16 -6 -4 -8 7 -6 26 4 29 3 31 -9 16 -21 -28 -28 -21
-24 22 2 22 2 40 1 40 -2 0 -10 -17 -18 -37z m145 -144 c-8 -5 -33 -13 -55
-19 -22 -5 -61 -16 -86 -24 -50 -15 -73 -9 -64 16 7 18 55 28 137 28 31 0 60
5 63 11 4 6 10 8 13 4 4 -3 0 -10 -8 -16z m-161 -135 c2 -2 -12 -4 -32 -4 -20
0 -38 4 -42 9 -5 9 64 4 74 -5z m136 -147 c62 -32 54 -33 -41 -5 -58 16 -74
25 -74 40 0 17 3 17 33 5 17 -8 55 -26 82 -40z m-270 -23 c22 -38 67 -83 78
-78 7 2 31 0 52 -5 l40 -9 -33 -1 c-22 -1 -31 -5 -26 -12 4 -7 0 -9 -12 -5
-11 3 -50 12 -89 20 -108 23 -114 28 -115 95 0 22 3 23 47 18 31 -3 51 -11 58
-23z m-161 -111 c54 -27 86 -51 86 -64 0 -5 -19 -8 -42 -8 -24 1 -63 -4 -88
-10 -80 -19 -80 -19 -80 55 l0 66 37 -7 c20 -4 60 -18 87 -32z m501 -118 c30
-19 55 -37 55 -39 0 -2 -24 5 -52 16 -29 11 -63 24 -74 28 -12 5 -24 17 -27
28 -4 18 -2 20 19 11 14 -5 49 -24 79 -44z m-241 9 c25 -14 46 -27 46 -29 0
-6 -138 3 -149 10 -6 3 -11 15 -11 26 0 28 57 25 114 -7z m-326 -132 c34 -24
62 -46 62 -48 0 -8 -165 9 -177 18 -15 12 -10 68 7 78 18 11 35 3 108 -48z
m241 -81 c16 -55 8 -46 -22 22 -19 45 -22 55 -8 38 10 -14 24 -40 30 -60z
m249 6 c19 -15 29 -27 22 -27 -6 0 -30 19 -53 42 -42 41 -33 37 31 -15z m83
-24 c13 -16 12 -17 -3 -4 -17 13 -22 21 -14 21 2 0 10 -8 17 -17z m-1018 -60
c28 -14 38 -31 62 -111 l13 -43 -76 6 c-121 10 -122 10 -122 51 0 19 9 55 20
80 19 40 23 44 48 38 15 -4 40 -13 55 -21z m590 -95 l14 -57 -59 50 c-32 28
-58 53 -58 56 0 3 13 3 30 1 31 -5 39 5 41 45 1 25 9 2 32 -95z m242 32 c10
-11 16 -20 13 -20 -3 0 -13 9 -23 20 -10 11 -16 20 -13 20 3 0 13 -9 23 -20z
m-555 -5 c18 -9 32 -26 35 -43 4 -15 10 -45 15 -67 5 -21 7 -41 5 -43 -6 -7
-75 39 -75 49 0 6 -11 25 -25 43 -48 63 -23 96 45 61z m601 -42 c13 -16 12
-17 -3 -4 -17 13 -22 21 -14 21 2 0 10 -8 17 -17z m-641 -53 c8 -5 11 -10 5
-10 -5 0 -17 5 -25 10 -8 5 -10 10 -5 10 6 0 17 -5 25 -10z m-407 -147 c20
-31 35 -58 33 -60 -2 -2 -19 4 -39 12 -20 8 -46 15 -57 15 -14 0 -20 7 -20 23
0 24 25 67 39 67 4 0 24 -26 44 -57z m806 21 c14 -12 -19 -1 -35 12 -18 14
-18 14 6 3 14 -6 27 -13 29 -15z m141 -18 c0 -12 -5 -7 -19 24 -11 24 -11 24
3 6 9 -11 16 -24 16 -30z m-1364 8 c-6 -15 -4 -15 10 -3 16 13 16 11 0 -19
-21 -40 -109 -127 -114 -113 -3 10 95 151 105 151 3 0 2 -7 -1 -16z m1268 -23
c-4 -3 -9 0 -11 7 -3 6 -10 9 -15 6 -7 -4 -8 -2 -4 5 6 9 11 9 22 0 8 -6 12
-15 8 -18z m116 -36 c0 -5 -5 -3 -10 5 -5 8 -10 20 -10 25 0 6 5 3 10 -5 5 -8
10 -19 10 -25z m-1291 -67 c-3 -71 -29 -145 -72 -202 -13 -18 -15 -16 -25 27
-17 67 -15 82 10 84 12 1 27 8 33 15 17 18 35 75 35 108 0 24 7 40 18 40 2 0
3 -33 1 -72z m624 -10 c16 -31 27 -67 25 -80 l-4 -23 -11 25 c-6 14 -30 43
-52 65 -42 40 -50 60 -28 68 27 12 43 -1 70 -55z m221 10 c14 -18 23 -34 20
-37 -5 -6 -64 50 -64 61 0 17 20 7 44 -24z m-552 -39 c11 -6 26 -25 33 -42 17
-43 31 -207 17 -207 -6 0 -14 9 -17 21 -4 12 -22 38 -40 58 -34 37 -53 81 -37
81 6 0 7 14 1 38 -5 20 -9 43 -9 50 0 15 24 16 52 1z m902 -26 c4 -16 9 -37
12 -48 3 -15 1 -14 -9 5 -21 37 -30 70 -19 70 6 0 13 -12 16 -27z m-155 -5 c5
-13 11 -34 15 -48 l7 -25 -14 25 c-18 31 -30 70 -22 70 3 0 9 -10 14 -22z
m-1274 -133 l-15 -40 5 59 c6 68 19 95 23 51 1 -16 -4 -48 -13 -70z m-207 19
c2 -22 -8 -42 -45 -86 -26 -31 -48 -56 -49 -55 -1 1 2 31 8 67 7 50 15 70 35
88 31 28 47 24 51 -14z m1532 -19 c0 -5 -5 -3 -10 5 -5 8 -10 20 -10 25 0 6 5
3 10 -5 5 -8 10 -19 10 -25z m-495 3 c6 -16 34 -160 30 -156 -2 2 -19 24 -39
51 -43 56 -51 117 -16 117 11 0 23 -6 25 -12z m529 -74 c3 -8 2 -12 -4 -9 -6
3 -10 10 -10 16 0 14 7 11 14 -7z m-1404 -16 c0 -13 -11 -36 -25 -53 l-25 -30
21 53 c24 58 29 63 29 30z m-1086 -29 c-24 -24 -48 -40 -59 -37 -12 2 -2 13
36 40 30 21 56 38 59 38 3 0 -14 -18 -36 -41z m1381 -19 c6 -9 -10 -114 -22
-150 -3 -8 -14 13 -25 48 -18 59 -18 66 -3 88 16 25 39 31 50 14z m-1334 -18
c-12 -22 -40 -47 -46 -40 -5 4 42 58 51 58 2 0 0 -8 -5 -18z m1707 -141 c-2
-9 -13 11 -26 45 -29 80 -27 93 4 25 14 -30 23 -61 22 -70z m-1518 106 c0 -2
-10 -12 -22 -23 l-23 -19 19 23 c18 21 26 27 26 19z m730 -42 c0 -6 -21 -31
-46 -55 -32 -32 -45 -39 -41 -25 3 11 8 37 12 57 7 43 30 61 57 45 10 -7 18
-17 18 -22z m-790 -40 c-7 -8 -17 -15 -22 -15 -6 0 -5 7 2 15 7 8 17 15 22 15
6 0 5 -7 -2 -15z m173 -10 c-10 -13 -25 -27 -33 -30 -8 -4 -2 8 14 24 36 37
43 40 19 6z m91 12 c-2 -7 -19 -21 -37 -32 l-32 -18 29 32 c31 32 49 41 40 18z
m1095 -83 c7 -22 11 -49 9 -60 -3 -15 -9 -11 -31 23 -23 37 -25 46 -15 68 13
30 20 25 37 -31z m-867 4 c-6 -6 -7 0 -4 19 5 21 7 23 10 9 2 -10 0 -22 -6
-28z m623 -9 c9 -38 -2 -128 -20 -177 l-14 -37 0 46 c-1 73 11 199 20 199 4 0
10 -14 14 -31z m-767 2 c-3 -14 -74 -70 -91 -71 -5 0 8 20 27 43 35 43 70 58
64 28z m193 -28 c-15 -29 -40 -59 -41 -50 0 10 39 67 46 67 3 0 0 -8 -5 -17z
m-371 3 c0 -2 -12 -11 -27 -20 l-28 -17 24 20 c23 21 31 25 31 17z m550 -32
c0 -9 -51 -94 -57 -94 -5 0 7 80 14 93 5 8 43 10 43 1z m-388 -73 c-4 -11 -27
-34 -52 -52 -46 -33 -42 -22 14 39 34 36 49 41 38 13z m208 -63 c0 -7 -11 -26
-25 -43 -26 -33 -34 -19 -15 29 10 26 40 36 40 14z"/>
<path d="M822 2292 c-7 -5 -11 -19 -9 -33 3 -18 14 -27 42 -37 21 -7 40 -11
42 -8 2 2 -6 20 -17 39 -15 25 -26 34 -37 30 -11 -4 -14 -2 -9 5 8 14 6 15
-12 4z"/>
<path d="M905 2260 c10 -19 18 -48 17 -64 0 -16 6 -39 14 -51 14 -21 14 -24
-1 -28 -12 -4 -11 -5 2 -3 12 1 19 11 21 28 4 30 -32 121 -56 140 -12 10 -11
6 3 -22z"/>
<path d="M940 2250 c2 -17 39 -112 40 -99 0 20 -20 81 -31 94 -5 5 -9 7 -9 5z"/>
<path d="M680 2220 c6 -11 8 -20 4 -20 -4 0 4 -9 18 -19 26 -21 182 -65 202
-57 6 2 5 5 -4 5 -8 1 -38 25 -68 54 l-53 52 20 -40 c10 -22 18 -42 15 -44 -2
-2 -29 17 -60 43 -61 50 -93 61 -74 26z"/>
<path d="M880 2186 c0 -2 7 -7 16 -10 8 -3 12 -2 9 4 -6 10 -25 14 -25 6z"/>
<path d="M640 2168 c0 -3 14 -17 30 -33 17 -16 30 -24 30 -18 0 7 -13 21 -30
33 -16 12 -30 20 -30 18z"/>
<path d="M707 2131 c14 -23 28 -39 31 -36 7 6 -32 68 -46 73 -6 2 0 -15 15
-37z"/>
<path d="M560 2096 c0 -3 9 -10 20 -16 11 -6 20 -8 20 -6 0 3 -9 10 -20 16
-11 6 -20 8 -20 6z"/>
<path d="M694 2063 c19 -38 20 -47 4 -37 -8 5 -9 -2 -4 -26 l6 -34 -23 22
c-13 12 -26 20 -29 16 -3 -3 -25 4 -48 16 -52 27 -44 10 16 -31 31 -21 62 -32
96 -36 49 -5 50 -4 43 19 -10 32 -31 69 -55 98 l-21 25 15 -32z"/>
<path d="M580 1984 c25 -31 59 -58 65 -52 2 2 -18 21 -43 43 -42 36 -44 37
-22 9z"/>
<path d="M2375 1923 c-85 -98 -327 -293 -362 -293 -6 0 -16 -6 -20 -13 -4 -7
-39 -36 -78 -64 -38 -28 -76 -61 -82 -72 -7 -11 -30 -29 -50 -40 -21 -11 -56
-36 -78 -56 -51 -46 -153 -125 -163 -125 -4 0 -18 -12 -31 -25 -13 -14 -34
-28 -48 -31 -14 -4 -36 -17 -51 -30 -33 -31 -187 -134 -200 -134 -5 0 -23 -12
-40 -27 -58 -55 -303 -191 -427 -239 -33 -13 -54 -23 -48 -24 26 -1 154 54
283 121 184 97 490 304 890 603 334 251 473 372 548 479 18 26 31 47 29 47 -2
0 -34 -35 -72 -77z"/>
<path d="M480 1942 c0 -4 14 -15 30 -24 30 -17 37 -14 22 10 -9 13 -52 25 -52
14z"/>
<path d="M568 1907 c23 -40 29 -62 13 -53 -14 9 -21 -21 -8 -32 14 -11 77 -26
77 -18 0 12 -69 112 -86 126 -15 13 -15 9 4 -23z"/>
<path d="M400 1897 c0 -2 11 -18 25 -37 16 -22 23 -41 19 -53 -3 -11 -2 -17 3
-14 15 9 9 -36 -7 -55 -18 -22 -36 -23 -72 -4 -32 17 -34 12 -14 -26 13 -24
12 -26 -2 -21 -37 13 5 -15 46 -30 74 -29 154 -17 168 26 4 12 -6 42 -25 80
-24 46 -28 62 -19 69 9 5 7 8 -8 8 -11 0 -38 13 -60 30 -35 26 -54 36 -54 27z"/>
<path d="M630 1882 c6 -13 14 -21 18 -18 3 4 -2 14 -12 24 -18 16 -18 16 -6
-6z"/>
<path d="M1565 1686 c-11 -8 -49 -42 -85 -75 -42 -41 -71 -61 -85 -59 -12 2
-20 -3 -20 -12 0 -8 -9 -16 -20 -18 -11 -2 -29 -12 -40 -22 -11 -10 -29 -20
-40 -22 -11 -2 -20 -8 -20 -13 0 -14 -35 -50 -62 -64 -13 -6 -23 -18 -23 -25
0 -7 -10 -18 -23 -25 -13 -7 -32 -26 -41 -42 -10 -17 -33 -40 -52 -52 -18 -12
-34 -28 -34 -35 0 -7 17 -31 38 -53 l38 -41 51 48 c38 36 53 59 58 87 5 28 11
35 18 28 19 -19 35 -12 42 19 4 17 13 30 20 30 7 0 16 14 20 30 8 37 12 37 40
4 l23 -26 -5 26 c-3 16 -1 26 5 24 5 -2 11 2 12 7 6 29 23 47 41 42 14 -4 19
0 19 14 0 23 13 25 30 4 16 -19 44 0 37 25 -2 9 4 28 14 41 17 22 18 23 37 6
26 -24 32 -21 32 14 0 16 4 28 9 25 4 -3 6 6 3 19 -3 18 0 25 11 25 22 0 27
47 7 65 -21 19 -30 19 -55 1z"/>
<path d="M318 1665 c5 -11 20 -29 31 -39 12 -11 21 -25 21 -33 0 -16 2 -16
-50 2 -53 19 -55 19 -39 -2 12 -15 12 -16 -5 -10 -13 5 -9 -3 13 -28 50 -57
35 -65 -17 -9 -26 28 -41 43 -34 34 6 -9 12 -21 12 -27 0 -6 21 -30 46 -53 43
-39 49 -42 87 -36 45 8 98 34 104 53 5 15 -58 85 -94 103 -15 8 -41 26 -57 40
-24 21 -27 22 -18 5z"/>
<path d="M279 1426 c9 -11 6 -12 -14 -8 -19 3 -25 0 -25 -12 0 -10 -5 -14 -11
-10 -7 4 -7 -1 1 -16 6 -12 27 -31 47 -42 25 -15 31 -23 21 -29 -7 -5 14 -7
50 -6 50 1 62 4 62 18 0 21 -37 61 -88 93 -46 29 -60 33 -43 12z"/>
<path d="M146 1305 c17 -26 48 -31 109 -15 l30 8 -36 1 c-20 0 -55 8 -78 16
l-41 14 16 -24z"/>
<path d="M182 1238 c8 -12 26 -25 38 -28 24 -6 40 -30 20 -30 -6 0 -8 -5 -4
-11 5 -9 -12 -10 -62 -5 l-69 6 43 -20 c24 -11 53 -27 65 -35 22 -16 22 -16
-8 -10 -29 6 -29 6 -10 -10 16 -13 33 -15 80 -11 60 6 60 6 38 -12 -13 -12
-46 -22 -82 -26 -40 -5 -61 -12 -65 -22 -5 -13 -15 -15 -44 -10 -37 7 -36 6
17 -24 30 -16 60 -30 67 -30 19 0 147 59 166 77 21 19 23 49 5 60 -7 4 -28 27
-46 50 -34 43 -91 86 -138 104 -25 9 -25 9 -11 -13z"/>
<path d="M581 1130 c-16 -145 -14 -275 7 -335 16 -48 19 -50 57 -52 l40 -3
-35 13 c-34 12 -35 14 -45 82 -5 39 -9 143 -7 233 1 89 0 162 -2 162 -2 0 -8
-45 -15 -100z"/>
<path d="M984 1179 c-19 -5 -34 -17 -37 -29 -3 -11 -19 -25 -36 -31 -29 -10
-30 -12 -24 -60 4 -37 3 -49 -8 -49 -10 0 -11 -2 0 -12 10 -11 14 -10 22 5 8
14 14 15 30 6 35 -19 42 -4 14 30 l-28 33 38 -16 c21 -9 45 -22 53 -29 12 -10
14 -7 7 22 -7 31 -6 32 14 21 23 -12 24 -11 36 44 4 22 1 34 -16 52 -12 13
-25 24 -28 23 -3 0 -20 -5 -37 -10z"/>
<path d="M319 733 c-13 -16 -12 -17 4 -4 16 13 21 21 13 21 -2 0 -10 -8 -17
-17z"/>
</g>
</svg>
